<mxfile host="app.diagrams.net" modified="2024-04-01T03:47:09.949Z" agent="Mozilla/5.0 (Windows NT 10.0; Win64; x64) AppleWebKit/537.36 (KHTML, like Gecko) Chrome/123.0.0.0 Safari/537.36" etag="GrXrATF51YruFi2FkoEr" version="24.2.1" type="device">
  <diagram name="페이지-1" id="dCDItLhE9B6KPuG86CPa">
    <mxGraphModel dx="1438" dy="1396" grid="1" gridSize="10" guides="1" tooltips="1" connect="1" arrows="1" fold="1" page="1" pageScale="1" pageWidth="827" pageHeight="1169" math="0" shadow="0">
      <root>
        <mxCell id="0" />
        <mxCell id="1" parent="0" />
        <mxCell id="2bcEp299qOwqtVFtaL6d-1" value="디테일 페이지&amp;nbsp;&lt;div&gt;시작&lt;/div&gt;" style="strokeWidth=2;html=1;shape=mxgraph.flowchart.terminator;whiteSpace=wrap;" vertex="1" parent="1">
          <mxGeometry x="220" y="30" width="100" height="60" as="geometry" />
        </mxCell>
        <mxCell id="2bcEp299qOwqtVFtaL6d-2" value="" style="endArrow=classic;html=1;rounded=0;fontSize=12;startSize=8;endSize=8;curved=1;" edge="1" parent="1">
          <mxGeometry width="50" height="50" relative="1" as="geometry">
            <mxPoint x="269.5" y="100" as="sourcePoint" />
            <mxPoint x="270" y="150" as="targetPoint" />
          </mxGeometry>
        </mxCell>
        <mxCell id="2bcEp299qOwqtVFtaL6d-3" value="DB 접속" style="rounded=0;whiteSpace=wrap;html=1;" vertex="1" parent="1">
          <mxGeometry x="210" y="160" width="120" height="60" as="geometry" />
        </mxCell>
        <mxCell id="2bcEp299qOwqtVFtaL6d-4" value="" style="endArrow=classic;html=1;rounded=0;fontSize=12;startSize=8;endSize=8;curved=1;" edge="1" parent="1">
          <mxGeometry width="50" height="50" relative="1" as="geometry">
            <mxPoint x="269.52" y="220" as="sourcePoint" />
            <mxPoint x="270.02" y="270" as="targetPoint" />
          </mxGeometry>
        </mxCell>
        <mxCell id="2bcEp299qOwqtVFtaL6d-5" value="DB 접속&amp;nbsp;&lt;div&gt;예외 발생&lt;/div&gt;" style="rhombus;whiteSpace=wrap;html=1;" vertex="1" parent="1">
          <mxGeometry x="230" y="271" width="80" height="80" as="geometry" />
        </mxCell>
        <mxCell id="2bcEp299qOwqtVFtaL6d-8" value="&lt;font style=&quot;font-size: 15px;&quot;&gt;예외 메시지 출력&lt;/font&gt;" style="shape=document;whiteSpace=wrap;html=1;boundedLbl=1;" vertex="1" parent="1">
          <mxGeometry x="500" y="660" width="120" height="80" as="geometry" />
        </mxCell>
        <mxCell id="2bcEp299qOwqtVFtaL6d-9" value="" style="endArrow=classic;html=1;rounded=0;fontSize=12;startSize=8;endSize=8;curved=1;" edge="1" parent="1">
          <mxGeometry relative="1" as="geometry">
            <mxPoint x="269.52" y="351" as="sourcePoint" />
            <mxPoint x="269.52" y="411" as="targetPoint" />
          </mxGeometry>
        </mxCell>
        <mxCell id="2bcEp299qOwqtVFtaL6d-10" value="NO" style="edgeLabel;resizable=0;html=1;fontSize=12;;align=center;verticalAlign=middle;" connectable="0" vertex="1" parent="2bcEp299qOwqtVFtaL6d-9">
          <mxGeometry relative="1" as="geometry" />
        </mxCell>
        <mxCell id="2bcEp299qOwqtVFtaL6d-12" value="파라미터&lt;div&gt;획득&lt;/div&gt;" style="rhombus;whiteSpace=wrap;html=1;" vertex="1" parent="1">
          <mxGeometry x="210" y="416" width="120" height="80" as="geometry" />
        </mxCell>
        <mxCell id="2bcEp299qOwqtVFtaL6d-15" value="" style="endArrow=classic;html=1;rounded=0;fontSize=12;startSize=8;endSize=8;curved=1;" edge="1" parent="1">
          <mxGeometry relative="1" as="geometry">
            <mxPoint x="270.52" y="505" as="sourcePoint" />
            <mxPoint x="270.52" y="565" as="targetPoint" />
          </mxGeometry>
        </mxCell>
        <mxCell id="2bcEp299qOwqtVFtaL6d-16" value="YES" style="edgeLabel;resizable=0;html=1;fontSize=12;;align=center;verticalAlign=middle;" connectable="0" vertex="1" parent="2bcEp299qOwqtVFtaL6d-15">
          <mxGeometry relative="1" as="geometry" />
        </mxCell>
        <mxCell id="2bcEp299qOwqtVFtaL6d-19" value="게시글 정보&lt;div&gt;획득&lt;/div&gt;" style="rhombus;whiteSpace=wrap;html=1;" vertex="1" parent="1">
          <mxGeometry x="212" y="570" width="120" height="80" as="geometry" />
        </mxCell>
        <mxCell id="2bcEp299qOwqtVFtaL6d-20" value="" style="endArrow=classic;html=1;rounded=0;fontSize=12;startSize=8;endSize=8;curved=1;" edge="1" parent="1">
          <mxGeometry relative="1" as="geometry">
            <mxPoint x="271.52" y="656" as="sourcePoint" />
            <mxPoint x="271.52" y="716" as="targetPoint" />
          </mxGeometry>
        </mxCell>
        <mxCell id="2bcEp299qOwqtVFtaL6d-21" value="YES" style="edgeLabel;resizable=0;html=1;fontSize=12;;align=center;verticalAlign=middle;" connectable="0" vertex="1" parent="2bcEp299qOwqtVFtaL6d-20">
          <mxGeometry relative="1" as="geometry">
            <mxPoint y="-1" as="offset" />
          </mxGeometry>
        </mxCell>
        <mxCell id="2bcEp299qOwqtVFtaL6d-22" value="&lt;font style=&quot;font-size: 15px;&quot;&gt;화면 출력&lt;/font&gt;" style="shape=document;whiteSpace=wrap;html=1;boundedLbl=1;" vertex="1" parent="1">
          <mxGeometry x="216" y="720" width="120" height="80" as="geometry" />
        </mxCell>
        <mxCell id="2bcEp299qOwqtVFtaL6d-23" value="" style="endArrow=classic;html=1;rounded=0;fontSize=12;startSize=8;endSize=8;curved=1;" edge="1" parent="1">
          <mxGeometry width="50" height="50" relative="1" as="geometry">
            <mxPoint x="280" y="800" as="sourcePoint" />
            <mxPoint x="280.5" y="850" as="targetPoint" />
          </mxGeometry>
        </mxCell>
        <mxCell id="2bcEp299qOwqtVFtaL6d-25" value="디테일 페이지&amp;nbsp;&lt;div&gt;시작&lt;/div&gt;" style="strokeWidth=2;html=1;shape=mxgraph.flowchart.terminator;whiteSpace=wrap;" vertex="1" parent="1">
          <mxGeometry x="236" y="860" width="100" height="60" as="geometry" />
        </mxCell>
        <mxCell id="2bcEp299qOwqtVFtaL6d-27" value="" style="endArrow=classic;html=1;rounded=0;fontSize=12;startSize=8;endSize=8;curved=1;" edge="1" parent="1">
          <mxGeometry relative="1" as="geometry">
            <mxPoint x="350" y="609.47" as="sourcePoint" />
            <mxPoint x="540" y="610" as="targetPoint" />
          </mxGeometry>
        </mxCell>
        <mxCell id="2bcEp299qOwqtVFtaL6d-28" value="NO" style="edgeLabel;resizable=0;html=1;fontSize=12;;align=center;verticalAlign=middle;" connectable="0" vertex="1" parent="2bcEp299qOwqtVFtaL6d-27">
          <mxGeometry relative="1" as="geometry" />
        </mxCell>
        <mxCell id="2bcEp299qOwqtVFtaL6d-29" value="수정 버튼 클릭" style="strokeWidth=2;html=1;shape=mxgraph.flowchart.terminator;whiteSpace=wrap;" vertex="1" parent="1">
          <mxGeometry x="650" y="10" width="100" height="60" as="geometry" />
        </mxCell>
        <mxCell id="2bcEp299qOwqtVFtaL6d-30" value="처리 종료" style="strokeWidth=2;html=1;shape=mxgraph.flowchart.terminator;whiteSpace=wrap;" vertex="1" parent="1">
          <mxGeometry x="650" y="190" width="100" height="60" as="geometry" />
        </mxCell>
        <mxCell id="2bcEp299qOwqtVFtaL6d-31" value="수정 페이지로 이동" style="rounded=0;whiteSpace=wrap;html=1;" vertex="1" parent="1">
          <mxGeometry x="640" y="100" width="120" height="60" as="geometry" />
        </mxCell>
        <mxCell id="2bcEp299qOwqtVFtaL6d-32" value="" style="endArrow=classic;html=1;rounded=0;fontSize=12;startSize=8;endSize=8;curved=1;" edge="1" parent="1">
          <mxGeometry width="50" height="50" relative="1" as="geometry">
            <mxPoint x="699.23" y="70" as="sourcePoint" />
            <mxPoint x="700" y="100" as="targetPoint" />
          </mxGeometry>
        </mxCell>
        <mxCell id="2bcEp299qOwqtVFtaL6d-34" value="" style="endArrow=classic;html=1;rounded=0;fontSize=12;startSize=8;endSize=8;curved=1;entryX=0.426;entryY=0.002;entryDx=0;entryDy=0;entryPerimeter=0;" edge="1" parent="1" target="2bcEp299qOwqtVFtaL6d-8">
          <mxGeometry relative="1" as="geometry">
            <mxPoint x="550" y="200" as="sourcePoint" />
            <mxPoint x="550" y="310" as="targetPoint" />
          </mxGeometry>
        </mxCell>
        <mxCell id="2bcEp299qOwqtVFtaL6d-35" value="YES" style="edgeLabel;resizable=0;html=1;fontSize=12;;align=center;verticalAlign=middle;" connectable="0" vertex="1" parent="2bcEp299qOwqtVFtaL6d-34">
          <mxGeometry relative="1" as="geometry">
            <mxPoint x="-181" y="-171" as="offset" />
          </mxGeometry>
        </mxCell>
        <mxCell id="2bcEp299qOwqtVFtaL6d-38" value="" style="endArrow=none;html=1;rounded=0;fontSize=12;startSize=8;endSize=8;curved=1;" edge="1" parent="1">
          <mxGeometry width="50" height="50" relative="1" as="geometry">
            <mxPoint x="330" y="200" as="sourcePoint" />
            <mxPoint x="550" y="200" as="targetPoint" />
          </mxGeometry>
        </mxCell>
        <mxCell id="2bcEp299qOwqtVFtaL6d-39" value="" style="endArrow=classic;html=1;rounded=0;fontSize=12;startSize=8;endSize=8;curved=1;" edge="1" parent="1">
          <mxGeometry relative="1" as="geometry">
            <mxPoint x="310" y="310.38" as="sourcePoint" />
            <mxPoint x="550" y="310" as="targetPoint" />
          </mxGeometry>
        </mxCell>
        <mxCell id="2bcEp299qOwqtVFtaL6d-40" value="NO" style="edgeLabel;resizable=0;html=1;fontSize=12;;align=center;verticalAlign=middle;" connectable="0" vertex="1" parent="2bcEp299qOwqtVFtaL6d-39">
          <mxGeometry relative="1" as="geometry" />
        </mxCell>
        <mxCell id="2bcEp299qOwqtVFtaL6d-42" value="" style="endArrow=classic;html=1;rounded=0;fontSize=12;startSize=8;endSize=8;curved=1;" edge="1" parent="1">
          <mxGeometry relative="1" as="geometry">
            <mxPoint x="330" y="455.85" as="sourcePoint" />
            <mxPoint x="550" y="460" as="targetPoint" />
          </mxGeometry>
        </mxCell>
        <mxCell id="2bcEp299qOwqtVFtaL6d-43" value="NO" style="edgeLabel;resizable=0;html=1;fontSize=12;;align=center;verticalAlign=middle;" connectable="0" vertex="1" parent="2bcEp299qOwqtVFtaL6d-42">
          <mxGeometry relative="1" as="geometry" />
        </mxCell>
        <mxCell id="2bcEp299qOwqtVFtaL6d-44" value="" style="endArrow=classic;html=1;rounded=0;fontSize=12;startSize=8;endSize=8;curved=1;" edge="1" parent="1">
          <mxGeometry width="50" height="50" relative="1" as="geometry">
            <mxPoint x="560" y="890" as="sourcePoint" />
            <mxPoint x="350" y="889.47" as="targetPoint" />
          </mxGeometry>
        </mxCell>
        <mxCell id="2bcEp299qOwqtVFtaL6d-45" value="" style="endArrow=none;html=1;rounded=0;fontSize=12;startSize=8;endSize=8;curved=1;" edge="1" parent="1">
          <mxGeometry width="50" height="50" relative="1" as="geometry">
            <mxPoint x="559" y="890" as="sourcePoint" />
            <mxPoint x="559.47" y="740" as="targetPoint" />
          </mxGeometry>
        </mxCell>
      </root>
    </mxGraphModel>
  </diagram>
</mxfile>
